# xmcd
#
# Track frame offsets: 
#        150
#        11518
#        26605
#        44710
#        53033
#        66390
#        79603
#        108235
#        118963
#        134740
#        147010
#        155055
#        169043
#        184543
#        191625
#        206493
#        221910
#        235955
#        249345
#        263755
#        279868
#
# Disc length: 3889 seconds
#
# Revision: 3
# Processed by: cddbd v1.5.2PL0 Copyright (c) Steve Scherf et al.
# Submitted via: ExactAudioCopy v1.3
#
DISCID=360f2f15
DTITLE=Flying Burrito Brothers - Out Of The Blue [CD2)
DYEAR=1996
DGENRE=Country
TTITLE0=Juanita
TTITLE1=Image Of Me
TTITLE2=Farther Along
TTITLE3=If You Gotta Go
TTITLE4=Bony Moronie
TTITLE5=Six Days On The Road
TTITLE6=Wild Horses
TTITLE7=Down In The Churchyard
TTITLE8=Wake Up Little Susie (live)
TTITLE9=Pick Me Up On Your Way Down
TTITLE10=Just Because
TTITLE11=Lodi
TTITLE12=Money Honey (live)
TTITLE13=I Shall Be Released
TTITLE14=White Line Fever
TTITLE15=Ain't That A Lot Of Love (live)
TTITLE16=Don't Fight It (live)
TTITLE17=Losing Game (live)
TTITLE18=Tried So Hard
TTITLE19=All Alone
TTITLE20=100 Years From Now (live)
EXTD=
EXTT0=
EXTT1=
EXTT2=
EXTT3=
EXTT4=
EXTT5=
EXTT6=
EXTT7=
EXTT8=
EXTT9=
EXTT10=
EXTT11=
EXTT12=
EXTT13=
EXTT14=
EXTT15=
EXTT16=
EXTT17=
EXTT18=
EXTT19=
EXTT20=
PLAYORDER=
